<svg width="512" height="512" viewBox="0 0 512 512" fill="none" xmlns="http://www.w3.org/2000/svg">
<circle cx="256" cy="256" r="256" fill="black"/>
<path d="M80 344.999V168H115.434V344.999H80Z" fill="white"/>
<path d="M146.167 344.999V168H220.866C226.612 168 232.438 168.718 238.343 170.153C244.409 171.428 249.915 174.139 254.863 178.285C259.971 182.272 264.041 188.331 267.074 196.463C270.266 204.596 271.862 215.359 271.862 228.754C271.862 242.148 270.266 252.992 267.074 261.283C264.041 269.575 260.051 275.874 255.103 280.179C250.155 284.485 244.808 287.355 239.062 288.79C233.316 290.225 227.729 290.943 222.302 290.943C219.429 290.943 216.078 290.863 212.247 290.704C208.416 290.385 204.506 289.986 200.515 289.508C196.685 289.029 193.093 288.631 189.742 288.312C186.39 287.833 183.676 287.435 181.601 287.116V344.999H146.167ZM181.601 259.131H216.796C220.946 259.131 224.457 258.174 227.33 256.261C230.363 254.188 232.597 250.998 234.034 246.693C235.47 242.228 236.189 236.328 236.189 228.993C236.189 221.817 235.391 216.157 233.794 212.011C232.358 207.705 230.203 204.596 227.33 202.682C224.617 200.769 221.345 199.812 217.514 199.812H181.601V259.131Z" fill="white"/>
<path d="M395.326 345L305.641 216.642H341.371L431.297 345H395.326ZM305.641 345L355.28 269.706L368.229 302.931L341.611 345H305.641ZM381.418 292.414L366.31 262.774L395.326 216.642H431.297L381.418 292.414Z" fill="white"/>
<path d="M375.446 345L286.725 216.642H322.071L411.03 345H375.446ZM286.725 345L335.83 269.706L348.64 302.931L322.308 345H286.725ZM361.687 292.414L346.742 262.774L375.446 216.642H411.03L361.687 292.414Z" fill="black"/>
</svg>
