<svg width="302" height="152" viewBox="0 0 302 152" fill="none" xmlns="http://www.w3.org/2000/svg">
<path d="M0 152V0H30.4292V152H0Z" fill="white"/>
<path d="M56.8219 152V0H120.97C125.904 0 130.907 0.616216 135.979 1.84865C141.188 2.94414 145.916 5.27207 150.166 8.83243C154.552 12.2558 158.047 17.4595 160.651 24.4432C163.393 31.427 164.763 40.6703 164.763 52.173C164.763 63.6757 163.393 72.9874 160.651 80.1081C158.047 87.2288 154.62 92.6378 150.371 96.3351C146.122 100.032 141.53 102.497 136.596 103.73C131.661 104.962 126.864 105.578 122.204 105.578C119.736 105.578 116.858 105.51 113.568 105.373C110.279 105.099 106.92 104.757 103.494 104.346C100.204 103.935 97.12 103.593 94.2416 103.319C91.3632 102.908 89.033 102.566 87.2511 102.292V152H56.8219ZM87.2511 78.2595H117.475C121.039 78.2595 124.054 77.4378 126.521 75.7946C129.126 74.0144 131.045 71.2757 132.278 67.5784C133.512 63.7441 134.129 58.6775 134.129 52.3784C134.129 46.2162 133.443 41.3549 132.073 37.7946C130.839 34.0973 128.988 31.427 126.521 29.7838C124.191 28.1405 121.381 27.3189 118.092 27.3189H87.2511V78.2595Z" fill="white"/>
<path d="M270.79 152L193.771 41.7715H224.455L301.68 152H270.79ZM193.771 152L236.399 87.341L247.52 115.873L224.661 152H193.771ZM258.846 106.841L245.872 81.3882L270.79 41.7715H301.68L258.846 106.841Z" fill="white"/>
<path d="M253.718 152L177.527 41.7715H207.881L284.275 152H253.718ZM177.527 152L219.697 87.341L230.698 115.873L208.085 152H177.527ZM241.902 106.841L229.068 81.3882L253.718 41.7715H284.275L241.902 106.841Z" fill="black"/>
</svg>
